#N canvas 626 22 731 712 10;
#X declare -lib moocow;
#X obj 73 85 comport 1 9600;
#X msg 73 48 open 5;
#X msg 138 53 close;
#X obj 77 253 nbx 5 14 -1e+37 1e+37 0 0 empty empty empty 0 -8 0 10
-262144 -1 -1 0 256;
#N canvas 146 163 525 433 serin 0;
#X obj 180 61 cnv 15 15 15 empty \$0-number-canvas 5 4 8 0 14 -233017
-1 0;
#X obj 200 225 s \$0-number-canvas;
#X obj 60 61 hradio 15 1 1 8 empty empty empty 0 -6 0 8 -225271 -1
-1 5;
#X obj 60 13 inlet;
#X msg 200 202 label \$1;
#X obj 200 180 makefilename %d;
#X obj 59 108 int;
#X msg 59 206 open \$1;
#X obj 59 377 outlet;
#X msg 201 306 set \$1 \$2;
#X obj 59 266 trigger bang anything;
#X obj 201 286 list;
#X obj 383 383 outlet;
#X obj 384 22 netreceive 34567;
#X obj 477 43 tgl 15 0 empty empty empty 0 -6 0 10 -262144 -1 -1 0
1;
#X obj 384 41 bng 15 250 50 0 empty empty empty 0 -6 0 10 -262144 -1
-1;
#X obj 187 24 delay 15000;
#X text 345 379 close;
#X text 209 4 for open/close automation in Makefile;
#X obj 184 95 bang;
#X obj 184 137 send ARDUINO_TEST_RESET;
#X msg 184 116 set 0;
#X connect 2 0 6 0;
#X connect 2 0 19 0;
#X connect 3 0 2 0;
#X connect 4 0 1 0;
#X connect 5 0 4 0;
#X connect 6 0 5 0;
#X connect 6 0 7 0;
#X connect 7 0 10 0;
#X connect 9 0 8 0;
#X connect 10 0 8 0;
#X connect 10 1 11 0;
#X connect 11 0 9 0;
#X connect 13 0 15 0;
#X connect 13 1 14 0;
#X connect 15 0 16 0;
#X connect 15 0 12 0;
#X connect 16 0 2 0;
#X connect 19 0 21 0;
#X connect 21 0 20 0;
#X coords 0 -1 1 1 136 17 1 60 60;
#X restore 68 19 pd serin;
#X text 66 3 serial port #;
#X obj 74 142 zl group 40;
#X obj 75 170 bytes2any;
#X floatatom 145 253 5 0 0 0 - - -;
#X floatatom 196 253 5 0 0 0 - - -;
#X obj 261 81 print;
#X obj 261 53 import moocow;
#X msg 261 27 bang;
#X obj 138 435 phasor~;
#X floatatom 138 406 5 0 0 0 - - -;
#X floatatom 253 397 5 0 0 0 - - -;
#X obj 253 426 osc~;
#X obj 363 428 line~;
#X obj 363 403 pack 0 50;
#X obj 363 379 / 100;
#X floatatom 363 352 5 0 0 0 - - -;
#X obj 254 474 *~;
#X obj 138 509 +~;
#X obj 137 563 cos~;
#X obj 136 600 *~ 0.5;
#X obj 136 638 dac~;
#X text 138 362 Carrier;
#X text 451 421 Clicks;
#X text 41 402 Carrier;
#X text 41 422 Phase;
#X text 40 515 Modulation;
#X text 140 382 Frequency;
#X text 249 373 Frequency;
#X text 247 354 Modulation;
#X text 357 301 Modulation Index;
#X text 354 321 in Hundredths;
#X text 452 402 to avoid;
#X text 42 496 Phase;
#X text 43 567 waveform;
#X obj 74 113 select 10 13;
#X obj 75 194 t l l l;
#X obj 76 226 zl nth 1;
#X obj 139 225 zl nth 3;
#X obj 205 224 zl nth 5;
#X obj 315 539 loadbang;
#X msg 314 565 \; pd dsp 1;
#X connect 0 0 39 0;
#X connect 1 0 0 0;
#X connect 2 0 0 0;
#X connect 3 0 20 0;
#X connect 4 0 1 0;
#X connect 4 1 2 0;
#X connect 6 0 7 0;
#X connect 7 0 40 0;
#X connect 8 0 14 0;
#X connect 9 0 15 0;
#X connect 11 0 10 0;
#X connect 12 0 11 0;
#X connect 13 0 22 0;
#X connect 14 0 13 0;
#X connect 15 0 16 0;
#X connect 16 0 21 0;
#X connect 17 0 21 1;
#X connect 18 0 17 0;
#X connect 19 0 18 0;
#X connect 20 0 19 0;
#X connect 21 0 22 1;
#X connect 22 0 23 0;
#X connect 23 0 24 0;
#X connect 24 0 25 0;
#X connect 24 0 25 1;
#X connect 39 0 6 0;
#X connect 39 2 6 0;
#X connect 40 0 41 0;
#X connect 40 1 42 0;
#X connect 40 2 43 0;
#X connect 41 0 3 0;
#X connect 42 0 8 0;
#X connect 43 0 9 0;
#X connect 44 0 45 0;
