#N canvas 268 22 731 712 24;
#X declare -lib moocow;
#X obj 63 54 comport 1 9600;
#X msg 64 10 open 5;
#X msg 150 10 close;
#X obj 213 267 nbx 5 14 -1e+37 1e+37 0 0 empty empty empty 0 -8 0 10
-262144 -1 -1 0 256;
#N canvas 146 163 525 433 serin 0;
#X obj 180 61 cnv 15 15 15 empty \$0-number-canvas 5 4 8 0 14 -233017
-1 0;
#X obj 200 225 s \$0-number-canvas;
#X obj 60 61 hradio 15 1 1 8 empty empty empty 0 -6 0 8 -225271 -1
-1 5;
#X obj 60 13 inlet;
#X msg 200 202 label \$1;
#X obj 200 180 makefilename %d;
#X obj 59 108 int;
#X msg 59 206 open \$1;
#X obj 59 377 outlet;
#X msg 201 306 set \$1 \$2;
#X obj 59 266 trigger bang anything;
#X obj 201 286 list;
#X obj 383 383 outlet;
#X obj 384 22 netreceive 34567;
#X obj 477 43 tgl 15 0 empty empty empty 0 -6 0 10 -262144 -1 -1 0
1;
#X obj 384 41 bng 15 250 50 0 empty empty empty 0 -6 0 10 -262144 -1
-1;
#X obj 187 24 delay 15000;
#X text 345 379 close;
#X text 209 4 for open/close automation in Makefile;
#X obj 184 95 bang;
#X obj 184 137 send ARDUINO_TEST_RESET;
#X msg 184 116 set 0;
#X connect 2 0 6 0;
#X connect 2 0 19 0;
#X connect 3 0 2 0;
#X connect 4 0 1 0;
#X connect 5 0 4 0;
#X connect 6 0 5 0;
#X connect 6 0 7 0;
#X connect 7 0 10 0;
#X connect 9 0 8 0;
#X connect 10 0 8 0;
#X connect 10 1 11 0;
#X connect 11 0 9 0;
#X connect 13 0 15 0;
#X connect 13 1 14 0;
#X connect 15 0 16 0;
#X connect 15 0 12 0;
#X connect 16 0 2 0;
#X connect 19 0 21 0;
#X connect 21 0 20 0;
#X coords 0 -1 1 1 136 17 1 60 60;
#X restore 63 -29 pd serin;
#X text 62 -65 serial port #;
#X obj 65 133 zl group 40;
#X obj 66 167 bytes2any;
#X obj 264 85 print;
#X obj 264 57 import moocow;
#X msg 264 31 bang;
#X obj 64 94 select 10 13;
#X obj 67 198 t l l l;
#X obj 59 229 zl nth 1;
#X obj 142 229 zl nth 3;
#X obj 208 228 zl nth 5;
#X obj 318 543 loadbang;
#X msg 317 569 \; pd dsp 1;
#X msg 280 423 start;
#X msg 96 437 stop;
#X obj 212 524 bng 15 250 50 0 empty empty empty 0 -6 0 8 -262144 -1
-1;
#X obj 79 569 dac~;
#X obj 79 526 *~ 0.7;
#X obj 79 494 readsf~ 2;
#X obj 136 526 *~ 0.7;
#X msg 83 406 open sound_1.aiff;
#X obj 280 394 delay 10;
#X obj 83 369 t b b;
#X obj 50 341 bng 15 250 50 0 empty empty empty 17 7 0 10 -262144 -1
-1;
#X obj 63 279 > 500;
#X obj 79 305 change;
#X obj 81 336 sel 1;
#X connect 0 0 11 0;
#X connect 1 0 0 0;
#X connect 2 0 0 0;
#X connect 3 0 29 0;
#X connect 4 0 1 0;
#X connect 4 1 2 0;
#X connect 6 0 7 0;
#X connect 7 0 12 0;
#X connect 9 0 8 0;
#X connect 10 0 9 0;
#X connect 11 0 6 0;
#X connect 11 2 6 0;
#X connect 12 0 13 0;
#X connect 12 1 14 0;
#X connect 12 2 15 0;
#X connect 13 0 3 0;
#X connect 16 0 17 0;
#X connect 18 0 23 0;
#X connect 19 0 23 0;
#X connect 22 0 21 0;
#X connect 23 0 22 0;
#X connect 23 1 24 0;
#X connect 23 2 20 0;
#X connect 24 0 21 1;
#X connect 25 0 23 0;
#X connect 26 0 18 0;
#X connect 27 0 25 0;
#X connect 27 1 26 0;
#X connect 28 0 27 0;
#X connect 29 0 30 0;
#X connect 30 0 31 0;
#X connect 31 0 27 0;
